Coordinates
version=1
nRows=15
nColumns=19
inDegrees=yes

Units are S.I. units (second, meters, Newtons, ...)
If the header above contains a line with 'inDegrees', this indicates whether rotational values are in degrees (yes) or radians (no).

endheader
time	pelvis_tilt	pelvis_list	pelvis_rotation	pelvis_tx	pelvis_ty	pelvis_tz	hip_flexion_r	hip_adduction_r	hip_rotation_r	knee_angle_r	knee_angle_r_beta	ankle_angle_r	hip_flexion_l	hip_adduction_l	hip_rotation_l	knee_angle_l	knee_angle_l_beta	ankle_angle_l
     16.82666667	      5.86119984	      9.25834951	      3.10060642	      2.23228661	      0.99158346	      0.97733789	    -13.05240286	    -14.73046423	    -13.30220570	     66.50869661	      1.16079574	     -3.84094234	      8.19734132	     11.09788638	    -12.02302356	     14.44109142	      0.25204459	      0.20235434
     16.83333333	      5.40044922	      9.47263054	      3.15419111	      2.23066836	      0.98607821	      0.97669628	    -10.70769354	    -15.12423600	    -11.91318276	     70.46377868	      1.22982494	     -3.59231895	      8.96375911	     11.31015278	    -12.52668048	     16.28169970	      0.28416927	      1.00561461
     16.84000000	      5.39946158	      9.76265959	      3.26542741	      2.22892592	      0.98078061	      0.97625930	     -8.91460638	    -15.51664682	    -10.73391521	     74.19149317	      1.29488583	     -3.41942533	      9.28279980	     11.52073300	    -12.89097097	     18.44355840	      0.32190082	      2.23552075
     16.84666667	      5.92346188	     10.14036999	      3.41089597	      2.22706908	      0.97586980	      0.97604390	     -7.74663485	    -15.93167907	     -9.74908661	     77.68147107	      1.35579744	     -3.27201905	      9.03229717	     11.75870532	    -13.04184230	     20.77877318	      0.36265801	      3.72779518
     16.85333333	      5.38516578	     10.16974401	      3.40003914	      2.22485264	      0.96991384	      0.97625278	     -5.02367986	    -15.94701163	     -8.15739523	     81.31246031	      1.41917016	     -3.24915831	     10.14412135	     11.52955747	    -13.50340302	     23.56248988	      0.41124303	      5.57241275
     16.86000000	      5.36185032	     10.26926471	      3.46642623	      2.22254759	      0.96455438	      0.97657246	     -2.95097462	    -15.98553384	     -6.85433639	     84.63495159	      1.47715857	     -3.23657860	     10.60996397	     11.35972226	    -13.61457592	     26.28535706	      0.45876603	      7.55348232
     16.86666667	      5.39420361	     10.27514965	      3.48483989	      2.22007443	      0.95943226	      0.97715295	     -0.86126399	    -15.86937669	     -5.52036010	     87.76066219	      1.53171251	     -3.22157116	     10.98197926	     11.05830455	    -13.60905385	     28.97478503	      0.50570540	      9.61678692
     16.87333333	      5.53930274	     10.18422941	      3.46868279	      2.21745011	      0.95474736	      0.97789571	      1.15653210	    -15.59555796	     -4.20370609	     90.63885749	      1.58194649	     -3.23246204	     11.15027095	     10.64529735	    -13.46836759	     31.51477628	      0.55003661	     11.69876863
     16.88000000	      5.59658950	     10.07386644	      3.45064741	      2.21474958	      0.95034626	      0.97869067	      3.31213215	    -15.30393948	     -2.93219732	     93.29632398	      1.62832803	     -3.20137496	     11.29848127	     10.23436206	    -13.22609799	     33.82893847	      0.59042636	     13.66493889
     16.88666667	      5.93605626	      9.88719295	      3.35576950	      2.21200154	      0.94674202	      0.97954183	      5.16265522	    -14.89466660	     -1.71853178	     95.62360866	      1.66894681	     -3.10373530	     10.98040685	      9.74509300	    -12.94234319	     35.81833614	      0.62514790	     15.52088262
     16.89333333	      5.92091193	      9.68980500	      3.28833848	      2.20921390	      0.94328877	      0.98029398	      7.45606730	    -14.49838323	     -0.51671152	     97.73753042	      1.70584171	     -3.04246588	     10.90075011	      9.29989910	    -12.62170910	     37.50923703	      0.65465969	     17.17496664
     16.90000000	      6.22653878	      9.44678185	      3.15685716	      2.20654728	      0.94080252	      0.98098228	      9.34076902	    -14.03075638	      0.57769856	     99.45928936	      1.73589207	     -2.93826807	     10.26747108	      8.81113347	    -12.34723061	     38.81026270	      0.67736687	     18.61241539
     16.90666667	      6.36426555	      9.19865550	      3.03577927	      2.20396049	      0.93875537	      0.98149008	     11.39240771	    -13.58030530	      1.60941542	    100.89042477	      1.76087010	     -2.78545628	      9.62927493	      8.37609200	    -12.07641351	     39.75009584	      0.69377005	     19.83918435
     16.91333333	      6.84392458	      9.02808611	      3.08338697	      2.20160446	      0.93774427	      0.98155227	     12.86925424	    -13.36837813	      2.22960977	    101.88748853	      1.77827214	     -2.56463337	      8.38932651	      8.13491295	    -11.50364712	     40.27446883	      0.70292209	     20.78432339
     16.92000000	      6.97645237	      8.64317155	      2.75351781	      2.19944529	      0.93696043	      0.98196696	     14.84429619	    -12.68440828	      3.28685108	    102.62577359	      1.79115765	     -2.35231553	      7.38418102	      7.56171726	    -11.64495211	     40.52586444	      0.70730977	     21.57887425
